<svg id="Layer_1" data-name="Layer 1" xmlns="http://www.w3.org/2000/svg" viewBox="0 0 122.88 115.22"><defs><style>.cls-1{fill-rule:evenodd;fill:#f7f7f7}</style></defs><title>event-management</title><path class="cls-1" d="M52.79,0C49.26,34.48,33.17,53.62,0,51.39V0H52.79V0Zm2,97c-1.39-1.23-2.48-2.12-2.71-4.68H52A2.15,2.15,0,0,1,51,92a2.67,2.67,0,0,1-1.07-1.31c-.5-1.15-.9-4.16.36-5L50,85.53l0-.33c0-.61-.06-1.34-.07-2.11,0-2.84-.1-6.27-2.38-7l-1-.29.65-.8a37.32,37.32,0,0,1,5.7-5.79A14.47,14.47,0,0,1,59.53,66,8,8,0,0,1,66,67.84a11.73,11.73,0,0,1,1.72,1.73,7.31,7.31,0,0,1,5.14,3A10.3,10.3,0,0,1,74.49,76a11.74,11.74,0,0,1,.45,3.82A9.24,9.24,0,0,1,72.27,86a1.8,1.8,0,0,1,.83.22,2.06,2.06,0,0,1,.73,2.53c-.25.78-.56,1.67-.86,2.43-.36,1-.88,1.21-1.9,1.1,0,2.51-1.21,3.2-2.77,4.68.06,3.79-13.56,3.34-13.47,0Zm-.71,3.12,4.05,10.64,2-5.8-1-1.09c-.75-1.1-.49-2.34.9-2.57a10.75,10.75,0,0,1,1.51,0,7.53,7.53,0,0,1,1.65.07c1.29.28,1.43,1.53.79,2.53l-1,1.09,2,5.8,3.67-10.64c2.64,2.38,12,2.86,14.87,4.49,4,2.25,3.92,6.62,4.81,10.66h-54c.88-4,.79-8.44,4.81-10.66,3.58-2,11.94-1.85,14.87-4.49ZM62,18.89l2.86,6.69,7.26.66a.56.56,0,0,1,.52.62.54.54,0,0,1-.19.39h0l-5.49,4.8,1.62,7.1a.57.57,0,0,1-.44.7.56.56,0,0,1-.44-.08L61.44,36l-6.25,3.74a.57.57,0,0,1-.8-.2.59.59,0,0,1-.07-.43h0l1.62-7.1-5.49-4.8a.58.58,0,0,1-.05-.82.59.59,0,0,1,.4-.2L58,25.58l2.86-6.7a.6.6,0,0,1,.77-.31.64.64,0,0,1,.31.32ZM44.2,56.29h.23A7.47,7.47,0,0,1,51.72,49v-.24a7.47,7.47,0,0,1-7.29-7.29H44.2a7.45,7.45,0,0,1-7.29,7.29V49a7.47,7.47,0,0,1,7.29,7.29Zm-3,10h.12a3.86,3.86,0,0,1,3.78-3.78v-.13a3.86,3.86,0,0,1-3.78-3.77h-.12a3.9,3.9,0,0,1-3.79,3.78v.12a3.9,3.9,0,0,1,3.79,3.78ZM29.71,62.2h.2A6.25,6.25,0,0,1,36,56.09v-.2a6.27,6.27,0,0,1-6.11-6.12h-.2a6.25,6.25,0,0,1-6.11,6.12v.2a6.25,6.25,0,0,1,6.11,6.11Zm49-5.91h-.23A7.47,7.47,0,0,0,71.16,49v-.24a7.47,7.47,0,0,0,7.29-7.29h.23A7.47,7.47,0,0,0,86,48.77V49a7.49,7.49,0,0,0-7.29,7.29Zm3,10h-.13a3.86,3.86,0,0,0-3.78-3.78v-.13a3.86,3.86,0,0,0,3.78-3.77h.13a3.88,3.88,0,0,0,3.78,3.78v.12a3.88,3.88,0,0,0-3.78,3.78ZM93.17,62.2H93a6.25,6.25,0,0,0-6.11-6.11v-.2A6.27,6.27,0,0,0,93,49.77h.2a6.25,6.25,0,0,0,6.11,6.12v.2a6.25,6.25,0,0,0-6.11,6.11Zm18.28-8.41h11.43v6H111.45v-6ZM0,53.79H11.43v6H0v-6Zm122.85,61.43V62.07h-12.1c-9.68,5.43-15.57,20.25-18.62,37.74,3.34,3.43,4,7.49,4.73,11.63.09.55.19,1.1.36,1.88a9.51,9.51,0,0,1,.2,1.9Zm-91-16.43C25.41,79.61,19.82,65.31,11,62.07H0v53.15H25.45a8.66,8.66,0,0,1,.3-2.29c.11-.57.19-1,.27-1.47.77-4.55,1.53-9,5.83-12.67ZM122.88,0V51.39C96.13,54.43,76.62,42.62,67.25.7V0Z"/></svg>