<?xml version="1.0" encoding="iso-8859-1"?>
<!-- Generator: Adobe Illustrator 19.0.0, SVG Export Plug-In . SVG Version: 6.00 Build 0)  -->
<svg version="1.1" id="Layer_1" xmlns="http://www.w3.org/2000/svg" xmlns:xlink="http://www.w3.org/1999/xlink" x="0px" y="0px"
	 viewBox="0 0 198.211 198.211" style="enable-background:new 0 0 198.211 198.211;fill:#f7f7f7;" xml:space="preserve">
<g>
	<g>
		<g>
			<path d="M99.105,31.353c-37.358,0-67.75,30.393-67.75,67.75s30.393,67.75,67.75,67.75c37.357,0,67.75-30.393,67.75-67.75
				S136.462,31.353,99.105,31.353z M99.105,159.722c-33.426,0-60.619-27.193-60.619-60.619c0-33.426,27.193-60.619,60.619-60.619
				c33.426,0,60.619,27.193,60.619,60.619C159.724,132.529,132.531,159.722,99.105,159.722z"/>
			<path d="M145.297,90.262c0.126-0.345,0.191-0.696,0.209-1.045c1.219-6.035-1.466-12.522-6.592-15.931
				c-0.261-0.237-0.561-0.439-0.895-0.595c-0.004,0-0.004,0-0.007,0l-0.004-0.004c-4.614-2.159-10.332-7.88-12.491-12.498
				c-0.16-0.334-0.362-0.634-0.599-0.895c-3.409-5.126-9.907-7.8-15.931-6.592c-0.345,0.017-0.696,0.083-1.041,0.209l-0.028,0.01
				c-4.788,1.727-12.829,1.724-17.617,0.004l-0.038-0.014c-0.345-0.126-0.696-0.191-1.045-0.209
				c-6.049-1.219-12.526,1.466-15.928,6.592c-0.24,0.261-0.442,0.561-0.599,0.895c0,0.004,0,0.004,0,0.007L72.689,60.2
				c-2.159,4.614-7.88,10.332-12.498,12.491c-0.334,0.16-0.634,0.362-0.895,0.599c-5.126,3.406-7.814,9.897-6.592,15.931
				c0.017,0.345,0.083,0.696,0.209,1.041l0.01,0.028c1.724,4.785,1.724,12.843,0,17.63l-0.01,0.024
				c-0.126,0.345-0.191,0.696-0.209,1.045c-1.219,6.035,1.466,12.522,6.592,15.931c0.261,0.237,0.561,0.439,0.895,0.595
				c0.004,0,0.004,0,0.007,0l0.004,0.004c4.614,2.159,10.332,7.88,12.491,12.498c0.16,0.334,0.362,0.634,0.599,0.895
				c2.859,4.301,7.884,6.885,12.992,6.885c0.982,0,1.968-0.097,2.939-0.292c0.345-0.017,0.696-0.083,1.041-0.209l0.028-0.01
				c4.788-1.727,12.829-1.724,17.617-0.004l0.038,0.014c0.345,0.126,0.696,0.191,1.045,0.209c6.049,1.219,12.526-1.466,15.928-6.592
				c0.24-0.261,0.442-0.561,0.599-0.895c0-0.004,0-0.004,0-0.007l0.004-0.004c2.159-4.614,7.88-10.332,12.498-12.491
				c0.334-0.16,0.634-0.362,0.895-0.599c5.126-3.406,7.814-9.897,6.592-15.931c-0.017-0.345-0.083-0.696-0.209-1.041l-0.01-0.028
				c-1.724-4.785-1.727-12.832-0.004-17.617L145.297,90.262z M134.025,119.505c-0.23,0.108-0.442,0.237-0.637,0.383
				c-5.133,2.921-10.583,8.371-13.497,13.5c-0.146,0.195-0.275,0.408-0.383,0.637c-1.71,3.649-6.351,5.568-10.14,4.196
				c-0.234-0.083-0.467-0.143-0.704-0.178c-5.694-1.564-13.417-1.57-19.117,0c-0.233,0.035-0.47,0.094-0.704,0.178
				c-3.792,1.372-8.434-0.547-10.14-4.199c-0.108-0.23-0.237-0.442-0.383-0.637c-2.921-5.133-8.371-10.583-13.501-13.497
				c-0.195-0.146-0.408-0.275-0.637-0.383c-3.649-1.706-5.572-6.348-4.196-10.14c0.083-0.233,0.143-0.47,0.178-0.707
				c1.567-5.697,1.567-13.417,0-19.111c-0.035-0.237-0.094-0.474-0.178-0.707c-1.379-3.792,0.547-8.434,4.199-10.14
				c0.23-0.108,0.442-0.237,0.637-0.383c5.133-2.921,10.583-8.371,13.497-13.501c0.146-0.195,0.275-0.408,0.383-0.637
				c1.706-3.649,6.345-5.579,10.14-4.196c0.233,0.083,0.467,0.143,0.704,0.178c5.694,1.567,13.417,1.567,19.117,0
				c0.233-0.035,0.47-0.094,0.704-0.178c3.792-1.382,8.434,0.547,10.14,4.199c0.108,0.23,0.237,0.442,0.383,0.637
				c2.921,5.133,8.371,10.583,13.501,13.497c0.195,0.146,0.408,0.275,0.637,0.383c3.649,1.706,5.572,6.348,4.196,10.14
				c-0.083,0.233-0.143,0.467-0.178,0.704c-1.567,5.694-1.567,13.417,0,19.117c0.035,0.233,0.094,0.47,0.178,0.704
				C139.604,113.157,137.678,117.799,134.025,119.505z"/>
			<path d="M184.079,99.103l13.918-38.357c0.627-1.734-0.171-3.663-1.842-4.447l-36.964-17.282L141.909,2.053
				c-0.783-1.668-2.709-2.455-4.447-1.842L99.105,14.13L60.748,0.211c-1.738-0.617-3.663,0.174-4.447,1.842L39.019,39.017
				L2.055,56.3c-1.672,0.783-2.469,2.713-1.842,4.447l13.918,38.357L0.213,137.46c-0.627,1.734,0.171,3.663,1.842,4.447
				l36.964,17.282l17.282,36.964c0.783,1.672,2.713,2.465,4.447,1.842l38.357-13.918l38.357,13.918
				c0.4,0.143,0.811,0.213,1.215,0.213c1.348,0,2.629-0.77,3.231-2.055l17.282-36.964l36.964-17.282
				c1.672-0.783,2.469-2.713,1.842-4.447L184.079,99.103z M154.999,153.276c-0.756,0.355-1.365,0.965-1.72,1.72l-16.45,35.181
				l-36.508-13.246c-0.394-0.143-0.804-0.213-1.215-0.213s-0.822,0.07-1.215,0.213l-36.508,13.246l-16.45-35.181
				c-0.355-0.756-0.965-1.365-1.72-1.72l-35.181-16.45l13.246-36.508c0.282-0.783,0.282-1.647,0-2.43L8.031,61.38l35.181-16.45
				c0.756-0.355,1.365-0.965,1.72-1.72l16.45-35.181L97.89,21.275c0.787,0.286,1.643,0.286,2.43,0l36.508-13.246l16.45,35.181
				c0.355,0.756,0.965,1.365,1.72,1.72l35.181,16.45l-13.246,36.507c-0.282,0.783-0.282,1.647,0,2.43l13.246,36.508L154.999,153.276
				z"/>
		</g>
	</g>
</g>
<g>
</g>
<g>
</g>
<g>
</g>
<g>
</g>
<g>
</g>
<g>
</g>
<g>
</g>
<g>
</g>
<g>
</g>
<g>
</g>
<g>
</g>
<g>
</g>
<g>
</g>
<g>
</g>
<g>
</g>
</svg>