<svg id="Layer_1" data-name="Layer 1" xmlns="http://www.w3.org/2000/svg" viewBox="0 0 122.88 99.69"><defs><style>.cls-1{fill-rule:evenodd;fill:#f7f7f7;}</style></defs><title>webinar</title><path class="cls-1" d="M38.8,45.21a4.17,4.17,0,0,1,.44-1.53,6.26,6.26,0,0,1-2.45-4.55h-.14a1.73,1.73,0,0,1-.88-.23,2.41,2.41,0,0,1-1-1.19c-.45-1-.81-3.75.33-4.53L34.9,33l0-.3c0-.55-.05-1.22-.07-1.91,0-2.56-.09-4.31-2.15-4.93l-.88-.27.58-.72a33.7,33.7,0,0,1,5.16-5.23,13.14,13.14,0,0,1,6-2.9,7.18,7.18,0,0,1,5.81,1.63A10.89,10.89,0,0,1,50.84,20c4.45.43,6.78,3.84,6.57,7.87A8.33,8.33,0,0,1,55,33.46a1.74,1.74,0,0,1,.75.19,1.86,1.86,0,0,1,.66,2.29c-.22.7-.51,1.51-.77,2.19-.33.92-.8,1.09-1.72,1-.05,2.28-1.1,3.39-2.51,4.73L51.73,45c-.89,4.32-10.37,4.8-12.93.24Zm22.08,44.7c-9.42,0-3.22.74-1.94-9.49,1.93-15.31,16.47-15.31,18.62,0,1.38,9.84,7.29,9.49-1.93,9.49H72c0,2.51-.4,2.22,2.19,3.63,1.33.72,3.8,1.25,5.91,2.08,3.22-2.74,8.93-.93,9.52-6,.09-.77-1.72-2.66-2.13-4.06a5.1,5.1,0,0,1-.23-5.16,4.35,4.35,0,0,0,.22-2.23c0-8.15,14.28-8.16,14.28,0,0,1-.23,1.58.32,2.38.94,1.36.46,3.77-.33,5-.51,1.48-2.43,3.23-2.27,4.06,1.32,6.72,10.11-.28,10.94,10H12.51C13.56,87.58,27.13,95,28.12,86.6c.11-.95-2.14-3.53-2.66-5.28-1.1-1.76-1.5-4.56-.29-6.42.48-.74.28-1.45.28-2.46,0-10.13,17.74-10.13,17.74,0,0,1.28-.29,1.64.4,2.65,1.17,1.69.57,4.67-.41,6.23-.63,1.83-3,4.24-2.82,5.28,1.49,7.56,11.43,1.62,14.13,10,2.17-1.34,5.84-1.83,8.14-3.21s1.89-1.17,1.87-3.45ZM22.73,59.22c.9-11.61,3.08-7.26,13-13.46,2.73,7.1,15.86,7.57,18.74,0C63,51.23,67.27,47.1,67.22,59.22H35.45c-.38,0-.76,0-1.13,0s-.74,0-1.11,0ZM2.93,65.6H10a2.53,2.53,0,0,1-1.89-2.43V11.61a2.52,2.52,0,0,1,2.51-2.5H58.14v2.77H11.23V63.09H23.74a12.08,12.08,0,0,0-3.92,8.37H2.93A2.94,2.94,0,0,1,0,68.53H0A2.94,2.94,0,0,1,2.93,65.6Zm42-2.51h66.44V11.88h-2.81V9.11h3.09a2.51,2.51,0,0,1,2.5,2.5V63.16a2.5,2.5,0,0,1-1.88,2.43H120a2.94,2.94,0,0,1,2.93,2.93h0A2.94,2.94,0,0,1,120,71.46H105.29a12.18,12.18,0,0,0-5.94-4.22h0a14.36,14.36,0,0,0-9.51,0,12.29,12.29,0,0,0-5.95,4.23H80.58a16.26,16.26,0,0,0-5.33-6,12.82,12.82,0,0,0-7.14-2.17A12.67,12.67,0,0,0,61,65.56a16.13,16.13,0,0,0-5.15,5.9h-7a12.12,12.12,0,0,0-3.92-8.37ZM70.47,0H96.2a6.18,6.18,0,0,1,6.16,6.16V22.3a6.18,6.18,0,0,1-6.16,6.16H81.12l-9.35,8a1,1,0,0,1-1.46-.11,1,1,0,0,1-.25-.74l.5-7.19h-.09a6.18,6.18,0,0,1-6.16-6.16V6.16A6.18,6.18,0,0,1,70.47,0ZM80.85,7.58l8,5.57a1.19,1.19,0,0,1,.56,1,1.2,1.2,0,0,1-.51,1l-8,5.49a1.17,1.17,0,0,1-.76.28h0A1.19,1.19,0,0,1,79,19.71h0V8.55h0a1.19,1.19,0,0,1,1.19-1.19,1.17,1.17,0,0,1,.7.23Zm-9.71,37.2a1.55,1.55,0,0,1,0-3.09h32.4a1.55,1.55,0,0,1,0,3.09Zm9.48,9.86a1.55,1.55,0,0,1,0-3.09h23a1.55,1.55,0,1,1,0,3.09Z"/></svg>